<?xml version="1.0" encoding="utf-8"?>
<!-- Generated by IcoMoon.io -->
<!DOCTYPE svg PUBLIC "-//W3C//DTD SVG 1.1//EN" "http://www.w3.org/Graphics/SVG/1.1/DTD/svg11.dtd">
<svg version="1.1" xmlns="http://www.w3.org/2000/svg" xmlns:xlink="http://www.w3.org/1999/xlink" width="512" height="512" viewBox="0 0 512 512">
<g>
</g>
	<path d="M420.024 18.401h-328.059c-40.592 0-73.564 32.953-73.564 73.575v328.059c0 40.612 32.973 73.575 73.564 73.575h328.048c40.622 0 73.575-32.962 73.575-73.575v-328.069c0-40.612-32.952-73.564-73.564-73.564zM137.605 454.635l-82.361 1.045v-269.486l82.361-1.024v269.466zM97.28 146.288c-24.904 0-45.087-20.183-45.087-45.087 0-24.862 20.194-45.066 45.087-45.066 24.883 0 45.056 20.214 45.056 45.066 0 24.904-20.173 45.087-45.056 45.087zM459.766 454.676l-79.872 1.198v-141.209c0-31.171-7.752-51.221-44.964-51.221-32.748 0-46.449 5.858-46.449 48.947v142.295l-82.043 0.993v-269.486l78.643-0.963v34.253l0.041 9.687c23.255-22.846 47.268-40.1 85.709-40.1 45.148 0 88.945 18.975 88.945 80.753v184.852z" fill="#000000" />
</svg>
