<svg width="555.45751953125px" height="170.02501220703124px" xmlns="http://www.w3.org/2000/svg" viewBox="-27.728759765625 -10.01250610351562 555.45751953125 170.02501220703124" style="background: rgba(0, 0, 0, 0);" preserveAspectRatio="xMidYMid"><defs><filter id="editing-extrusion" x="-100%" y="-100%" width="300%" height="300%"><feFlood result="color1" flood-color="#ffffff"></feFlood><feConvolveMatrix order="8,8" divisor="1" kernelMatrix="1 0 0 0 0 0 0 0 0 1 0 0 0 0 0 0 0 0 1 0 0 0 0 0 0 0 0 1 0 0 0 0 0 0 0 0 1 0 0 0 0 0 0 0 0 1 0 0 0 0 0 0 0 0 1 0 0 0 0 0 0 0 0 1" in="SourceAlpha" result="extrude"></feConvolveMatrix><feComposite in="color1" in2="extrude" result="comp-extrude" operator="in"></feComposite><feOffset dx="4" dy="4" in="comp-extrude" result="offset-extrude"></feOffset><feMerge><feMergeNode in="offset-extrude"></feMergeNode><feMergeNode in="SourceGraphic"></feMergeNode></feMerge></filter></defs><g filter="url(#editing-extrusion)"><g transform="translate(53.42500913143158, 98.32500076293945)"><path d="M22.08-29.31L22.08-29.31L22.08-29.31Q22.78-29.63 24.29-30.05L24.29-30.05L24.29-30.05Q25.79-30.46 27.33-30.46L27.33-30.46L27.33-30.46Q30.02-30.46 31.81-29.66L31.81-29.66L31.81-29.66Q33.60-28.86 33.98-27.33L33.98-27.33L33.98-27.33Q34.69-24.70 35.30-22.43L35.30-22.43L35.30-22.43Q35.90-20.16 36.48-18.08L36.48-18.08L36.48-18.08Q37.06-16 37.60-13.95L37.60-13.95L37.60-13.95Q38.14-11.90 38.66-9.66L38.66-9.66L38.98-9.66L38.98-9.66Q39.55-13.57 40-17.12L40-17.12L40-17.12Q40.45-20.67 40.83-24.10L40.83-24.10L40.83-24.10Q41.22-27.52 41.60-30.88L41.60-30.88L41.60-30.88Q41.98-34.24 42.37-37.70L42.37-37.70L42.37-37.70Q44.74-39.04 47.42-39.04L47.42-39.04L47.42-39.04Q49.79-39.04 51.52-38.02L51.52-38.02L51.52-38.02Q53.25-36.99 53.25-34.56L53.25-34.56L53.25-34.56Q53.25-33.15 52.96-30.56L52.96-30.56L52.96-30.56Q52.67-27.97 52.19-24.77L52.19-24.77L52.19-24.77Q51.71-21.57 51.07-18.05L51.07-18.05L51.07-18.05Q50.43-14.53 49.73-11.33L49.73-11.33L49.73-11.33Q49.02-8.13 48.29-5.54L48.29-5.54L48.29-5.54Q47.55-2.94 46.91-1.54L46.91-1.54L46.91-1.54Q45.95-0.64 43.78-0.06L43.78-0.06L43.78-0.06Q41.60 0.51 39.30 0.51L39.30 0.51L39.30 0.51Q36.29 0.51 34.21-0.29L34.21-0.29L34.21-0.29Q32.13-1.09 31.68-2.56L31.68-2.56L31.68-2.56Q30.85-5.12 29.89-8.64L29.89-8.64L29.89-8.64Q28.93-12.16 27.84-16.38L27.84-16.38L27.84-16.38Q26.94-12.22 25.98-8.26L25.98-8.26L25.98-8.26Q25.02-4.29 24.26-1.54L24.26-1.54L24.26-1.54Q23.30-0.64 21.38-0.06L21.38-0.06L21.38-0.06Q19.46 0.51 17.15 0.51L17.15 0.51L17.15 0.51Q14.27 0.51 11.94-0.29L11.94-0.29L11.94-0.29Q9.60-1.09 8.90-2.56L8.90-2.56L8.90-2.56Q8.32-3.71 7.65-5.98L7.65-5.98L7.65-5.98Q6.98-8.26 6.27-11.17L6.27-11.17L6.27-11.17Q5.57-14.08 4.83-17.47L4.83-17.47L4.83-17.47Q4.10-20.86 3.49-24.26L3.49-24.26L3.49-24.26Q2.88-27.65 2.37-30.88L2.37-30.88L2.37-30.88Q1.86-34.11 1.60-36.80L1.60-36.80L1.60-36.80Q2.50-37.63 4.10-38.34L4.10-38.34L4.10-38.34Q5.70-39.04 7.55-39.04L7.55-39.04L7.55-39.04Q9.98-39.04 11.55-37.98L11.55-37.98L11.55-37.98Q13.12-36.93 13.50-34.43L13.50-34.43L13.50-34.43Q14.53-27.90 15.20-23.55L15.20-23.55L15.20-23.55Q15.87-19.20 16.29-16.42L16.29-16.42L16.29-16.42Q16.70-13.63 16.90-12.10L16.90-12.10L16.90-12.10Q17.09-10.56 17.28-9.66L17.28-9.66L17.60-9.66L17.60-9.66Q18.18-12.22 18.69-14.40L18.69-14.40L18.69-14.40Q19.20-16.58 19.74-18.78L19.74-18.78L19.74-18.78Q20.29-20.99 20.86-23.52L20.86-23.52L20.86-23.52Q21.44-26.05 22.08-29.31ZM58.05-39.74L58.05-39.74L58.05-39.74Q58.05-42.18 59.68-43.84L59.68-43.84L59.68-43.84Q61.31-45.50 64-45.50L64-45.50L64-45.50Q66.69-45.50 68.32-43.84L68.32-43.84L68.32-43.84Q69.95-42.18 69.95-39.74L69.95-39.74L69.95-39.74Q69.95-37.31 68.32-35.65L68.32-35.65L68.32-35.65Q66.69-33.98 64-33.98L64-33.98L64-33.98Q61.31-33.98 59.68-35.65L59.68-35.65L59.68-35.65Q58.05-37.31 58.05-39.74ZM69.44-26.11L69.44-0.06L69.44-0.06Q68.74 0.06 67.36 0.29L67.36 0.29L67.36 0.29Q65.98 0.51 64.58 0.51L64.58 0.51L64.58 0.51Q63.17 0.51 62.05 0.32L62.05 0.32L62.05 0.32Q60.93 0.13 60.16-0.45L60.16-0.45L60.16-0.45Q59.39-1.02 58.98-2.02L58.98-2.02L58.98-2.02Q58.56-3.01 58.56-4.61L58.56-4.61L58.56-30.66L58.56-30.66Q59.26-30.78 60.64-31.01L60.64-31.01L60.64-31.01Q62.02-31.23 63.42-31.23L63.42-31.23L63.42-31.23Q64.83-31.23 65.95-31.04L65.95-31.04L65.95-31.04Q67.07-30.85 67.84-30.27L67.84-30.27L67.84-30.27Q68.61-29.70 69.02-28.70L69.02-28.70L69.02-28.70Q69.44-27.71 69.44-26.11L69.44-26.11ZM87.42-37.18L87.42-0.06L87.42-0.06Q86.72 0.06 85.34 0.29L85.34 0.29L85.34 0.29Q83.97 0.51 82.56 0.51L82.56 0.51L82.56 0.51Q81.15 0.51 80.03 0.32L80.03 0.32L80.03 0.32Q78.91 0.13 78.14-0.45L78.14-0.45L78.14-0.45Q77.38-1.02 76.96-2.02L76.96-2.02L76.96-2.02Q76.54-3.01 76.54-4.61L76.54-4.61L76.54-41.73L76.54-41.73Q77.25-41.86 78.62-42.08L78.62-42.08L78.62-42.08Q80-42.30 81.41-42.30L81.41-42.30L81.41-42.30Q82.82-42.30 83.94-42.11L83.94-42.11L83.94-42.11Q85.06-41.92 85.82-41.34L85.82-41.34L85.82-41.34Q86.59-40.77 87.01-39.78L87.01-39.78L87.01-39.78Q87.42-38.78 87.42-37.18L87.42-37.18ZM105.34-37.18L105.34-0.06L105.34-0.06Q104.64 0.06 103.26 0.29L103.26 0.29L103.26 0.29Q101.89 0.51 100.48 0.51L100.48 0.51L100.48 0.51Q99.07 0.51 97.95 0.32L97.95 0.32L97.95 0.32Q96.83 0.13 96.06-0.45L96.06-0.45L96.06-0.45Q95.30-1.02 94.88-2.02L94.88-2.02L94.88-2.02Q94.46-3.01 94.46-4.61L94.46-4.61L94.46-41.73L94.46-41.73Q95.17-41.86 96.54-42.08L96.54-42.08L96.54-42.08Q97.92-42.30 99.33-42.30L99.33-42.30L99.33-42.30Q100.74-42.30 101.86-42.11L101.86-42.11L101.86-42.11Q102.98-41.92 103.74-41.34L103.74-41.34L103.74-41.34Q104.51-40.77 104.93-39.78L104.93-39.78L104.93-39.78Q105.34-38.78 105.34-37.18L105.34-37.18ZM124.74-39.74L124.74-39.74L124.74-39.74Q124.74-42.18 126.37-43.84L126.37-43.84L126.37-43.84Q128-45.50 130.69-45.50L130.69-45.50L130.69-45.50Q133.38-45.50 135.01-43.84L135.01-43.84L135.01-43.84Q136.64-42.18 136.64-39.74L136.64-39.74L136.64-39.74Q136.64-37.31 135.01-35.65L135.01-35.65L135.01-35.65Q133.38-33.98 130.69-33.98L130.69-33.98L130.69-33.98Q128-33.98 126.37-35.65L126.37-35.65L126.37-35.65Q124.74-37.31 124.74-39.74ZM136.13-26.11L136.13-0.06L136.13-0.06Q135.42 0.06 134.05 0.29L134.05 0.29L134.05 0.29Q132.67 0.51 131.26 0.51L131.26 0.51L131.26 0.51Q129.86 0.51 128.74 0.32L128.74 0.32L128.74 0.32Q127.62 0.13 126.85-0.45L126.85-0.45L126.85-0.45Q126.08-1.02 125.66-2.02L125.66-2.02L125.66-2.02Q125.25-3.01 125.25-4.61L125.25-4.61L125.25-30.66L125.25-30.66Q125.95-30.78 127.33-31.01L127.33-31.01L127.33-31.01Q128.70-31.23 130.11-31.23L130.11-31.23L130.11-31.23Q131.52-31.23 132.64-31.04L132.64-31.04L132.64-31.04Q133.76-30.85 134.53-30.27L134.53-30.27L134.53-30.27Q135.30-29.70 135.71-28.70L135.71-28.70L135.71-28.70Q136.13-27.71 136.13-26.11L136.13-26.11ZM153.92-20.35L153.92-10.69L153.92-10.69Q153.92-9.02 154.98-8.32L154.98-8.32L154.98-8.32Q156.03-7.62 157.95-7.62L157.95-7.62L157.95-7.62Q158.91-7.62 159.94-7.78L159.94-7.78L159.94-7.78Q160.96-7.94 161.73-8.19L161.73-8.19L161.73-8.19Q162.30-7.49 162.72-6.62L162.72-6.62L162.72-6.62Q163.14-5.76 163.14-4.54L163.14-4.54L163.14-4.54Q163.14-2.11 161.31-0.58L161.31-0.58L161.31-0.58Q159.49 0.96 154.88 0.96L154.88 0.96L154.88 0.96Q149.25 0.96 146.21-1.60L146.21-1.60L146.21-1.60Q143.17-4.16 143.17-9.92L143.17-9.92L143.17-37.31L143.17-37.31Q143.87-37.50 145.18-37.73L145.18-37.73L145.18-37.73Q146.50-37.95 147.97-37.95L147.97-37.95L147.97-37.95Q150.78-37.95 152.35-36.96L152.35-36.96L152.35-36.96Q153.92-35.97 153.92-32.77L153.92-32.77L153.92-28.67L162.30-28.67L162.30-28.67Q162.69-27.97 163.04-26.91L163.04-26.91L163.04-26.91Q163.39-25.86 163.39-24.58L163.39-24.58L163.39-24.58Q163.39-22.34 162.40-21.34L162.40-21.34L162.40-21.34Q161.41-20.35 159.74-20.35L159.74-20.35L153.92-20.35ZM202.05-30.98L202.05-30.98L202.05-30.98Q197.12-30.98 194.50-27.97L194.50-27.97L194.50-27.97Q191.87-24.96 191.87-19.46L191.87-19.46L191.87-19.46Q191.87-13.89 194.78-10.88L194.78-10.88L194.78-10.88Q197.70-7.87 202.62-7.87L202.62-7.87L202.62-7.87Q205.25-7.87 207.07-8.58L207.07-8.58L207.07-8.58Q208.90-9.28 210.56-10.18L210.56-10.18L210.56-10.18Q211.65-9.28 212.26-8.03L212.26-8.03L212.26-8.03Q212.86-6.78 212.86-5.12L212.86-5.12L212.86-5.12Q212.86-2.50 209.95-0.67L209.95-0.67L209.95-0.67Q207.04 1.15 201.09 1.15L201.09 1.15L201.09 1.15Q196.80 1.15 193.02-0.06L193.02-0.06L193.02-0.06Q189.25-1.28 186.43-3.81L186.43-3.81L186.43-3.81Q183.62-6.34 181.98-10.21L181.98-10.21L181.98-10.21Q180.35-14.08 180.35-19.46L180.35-19.46L180.35-19.46Q180.35-24.45 181.92-28.26L181.92-28.26L181.92-28.26Q183.49-32.06 186.21-34.69L186.21-34.69L186.21-34.69Q188.93-37.31 192.58-38.66L192.58-38.66L192.58-38.66Q196.22-40 200.38-40L200.38-40L200.38-40Q206.27-40 209.50-38.08L209.50-38.08L209.50-38.08Q212.74-36.16 212.74-33.15L212.74-33.15L212.74-33.15Q212.74-31.49 211.90-30.27L211.90-30.27L211.90-30.27Q211.07-29.06 209.98-28.35L209.98-28.35L209.98-28.35Q208.32-29.44 206.43-30.21L206.43-30.21L206.43-30.21Q204.54-30.98 202.05-30.98ZM233.60 1.02L233.60 1.02L233.60 1.02Q229.82 1.02 226.59-0.03L226.59-0.03L226.59-0.03Q223.36-1.09 220.96-3.20L220.96-3.20L220.96-3.20Q218.56-5.31 217.18-8.51L217.18-8.51L217.18-8.51Q215.81-11.71 215.81-16L215.81-16L215.81-16Q215.81-20.22 217.18-23.26L217.18-23.26L217.18-23.26Q218.56-26.30 220.80-28.26L220.80-28.26L220.80-28.26Q223.04-30.21 225.92-31.14L225.92-31.14L225.92-31.14Q228.80-32.06 231.81-32.06L231.81-32.06L231.81-32.06Q235.20-32.06 237.98-31.04L237.98-31.04L237.98-31.04Q240.77-30.02 242.78-28.22L242.78-28.22L242.78-28.22Q244.80-26.43 245.92-23.94L245.92-23.94L245.92-23.94Q247.04-21.44 247.04-18.50L247.04-18.50L247.04-18.50Q247.04-16.32 245.82-15.17L245.82-15.17L245.82-15.17Q244.61-14.02 242.43-13.70L242.43-13.70L226.62-11.33L226.62-11.33Q227.33-9.22 229.50-8.16L229.50-8.16L229.50-8.16Q231.68-7.10 234.50-7.10L234.50-7.10L234.50-7.10Q237.12-7.10 239.46-7.78L239.46-7.78L239.46-7.78Q241.79-8.45 243.26-9.34L243.26-9.34L243.26-9.34Q244.29-8.70 244.99-7.55L244.99-7.55L244.99-7.55Q245.70-6.40 245.70-5.12L245.70-5.12L245.70-5.12Q245.70-2.24 243.01-0.83L243.01-0.83L243.01-0.83Q240.96 0.26 238.40 0.64L238.40 0.64L238.40 0.64Q235.84 1.02 233.60 1.02ZM231.81-24.13L231.81-24.13L231.81-24.13Q230.27-24.13 229.15-23.62L229.15-23.62L229.15-23.62Q228.03-23.10 227.33-22.30L227.33-22.30L227.33-22.30Q226.62-21.50 226.27-20.51L226.27-20.51L226.27-20.51Q225.92-19.52 225.86-18.50L225.86-18.50L236.80-20.29L236.80-20.29Q236.61-21.57 235.39-22.85L235.39-22.85L235.39-22.85Q234.18-24.13 231.81-24.13ZM263.17-21.89L263.17-0.06L263.17-0.06Q262.53 0.13 261.15 0.32L261.15 0.32L261.15 0.32Q259.78 0.51 258.30 0.51L258.30 0.51L258.30 0.51Q256.90 0.51 255.78 0.32L255.78 0.32L255.78 0.32Q254.66 0.13 253.89-0.45L253.89-0.45L253.89-0.45Q253.12-1.02 252.70-2.02L252.70-2.02L252.70-2.02Q252.29-3.01 252.29-4.61L252.29-4.61L252.29-23.81L252.29-23.81Q252.29-25.28 252.83-26.34L252.83-26.34L252.83-26.34Q253.38-27.39 254.40-28.22L254.40-28.22L254.40-28.22Q255.42-29.06 256.93-29.73L256.93-29.73L256.93-29.73Q258.43-30.40 260.16-30.91L260.16-30.91L260.16-30.91Q261.89-31.42 263.74-31.71L263.74-31.71L263.74-31.71Q265.60-32 267.46-32L267.46-32L267.46-32Q270.53-32 272.32-30.82L272.32-30.82L272.32-30.82Q274.11-29.63 274.11-26.94L274.11-26.94L274.11-26.94Q274.11-26.05 273.86-25.18L273.86-25.18L273.86-25.18Q273.60-24.32 273.22-23.62L273.22-23.62L273.22-23.62Q271.87-23.62 270.46-23.49L270.46-23.49L270.46-23.49Q269.06-23.36 267.71-23.10L267.71-23.10L267.71-23.10Q266.37-22.85 265.18-22.56L265.18-22.56L265.18-22.56Q264-22.27 263.17-21.89L263.17-21.89ZM293.82 1.02L293.82 1.02L293.82 1.02Q290.05 1.02 286.82-0.03L286.82-0.03L286.82-0.03Q283.58-1.09 281.18-3.20L281.18-3.20L281.18-3.20Q278.78-5.31 277.41-8.51L277.41-8.51L277.41-8.51Q276.03-11.71 276.03-16L276.03-16L276.03-16Q276.03-20.22 277.41-23.26L277.41-23.26L277.41-23.26Q278.78-26.30 281.02-28.26L281.02-28.26L281.02-28.26Q283.26-30.21 286.14-31.14L286.14-31.14L286.14-31.14Q289.02-32.06 292.03-32.06L292.03-32.06L292.03-32.06Q295.42-32.06 298.21-31.04L298.21-31.04L298.21-31.04Q300.99-30.02 303.01-28.22L303.01-28.22L303.01-28.22Q305.02-26.43 306.14-23.94L306.14-23.94L306.14-23.94Q307.26-21.44 307.26-18.50L307.26-18.50L307.26-18.50Q307.26-16.32 306.05-15.17L306.05-15.17L306.05-15.17Q304.83-14.02 302.66-13.70L302.66-13.70L286.85-11.33L286.85-11.33Q287.55-9.22 289.73-8.16L289.73-8.16L289.73-8.16Q291.90-7.10 294.72-7.10L294.72-7.10L294.72-7.10Q297.34-7.10 299.68-7.78L299.68-7.78L299.68-7.78Q302.02-8.45 303.49-9.34L303.49-9.34L303.49-9.34Q304.51-8.70 305.22-7.55L305.22-7.55L305.22-7.55Q305.92-6.40 305.92-5.12L305.92-5.12L305.92-5.12Q305.92-2.24 303.23-0.83L303.23-0.83L303.23-0.83Q301.18 0.26 298.62 0.64L298.62 0.64L298.62 0.64Q296.06 1.02 293.82 1.02ZM292.03-24.13L292.03-24.13L292.03-24.13Q290.50-24.13 289.38-23.62L289.38-23.62L289.38-23.62Q288.26-23.10 287.55-22.30L287.55-22.30L287.55-22.30Q286.85-21.50 286.50-20.51L286.50-20.51L286.50-20.51Q286.14-19.52 286.08-18.50L286.08-18.50L297.02-20.29L297.02-20.29Q296.83-21.57 295.62-22.85L295.62-22.85L295.62-22.85Q294.40-24.13 292.03-24.13ZM325.82-6.91L325.82-6.91L325.82-6.91Q326.91-6.91 328.22-7.14L328.22-7.14L328.22-7.14Q329.54-7.36 330.18-7.74L330.18-7.74L330.18-12.86L325.57-12.48L325.57-12.48Q323.78-12.35 322.62-11.71L322.62-11.71L322.62-11.71Q321.47-11.07 321.47-9.79L321.47-9.79L321.47-9.79Q321.47-8.51 322.46-7.71L322.46-7.71L322.46-7.71Q323.46-6.91 325.82-6.91ZM325.31-32.06L325.31-32.06L325.31-32.06Q328.77-32.06 331.62-31.36L331.62-31.36L331.62-31.36Q334.46-30.66 336.48-29.22L336.48-29.22L336.48-29.22Q338.50-27.78 339.58-25.57L339.58-25.57L339.58-25.57Q340.67-23.36 340.67-20.35L340.67-20.35L340.67-6.02L340.67-6.02Q340.67-4.35 339.74-3.30L339.74-3.30L339.74-3.30Q338.82-2.24 337.54-1.47L337.54-1.47L337.54-1.47Q333.38 1.02 325.82 1.02L325.82 1.02L325.82 1.02Q322.43 1.02 319.71 0.38L319.71 0.38L319.71 0.38Q316.99-0.26 315.04-1.54L315.04-1.54L315.04-1.54Q313.09-2.82 312.03-4.80L312.03-4.80L312.03-4.80Q310.98-6.78 310.98-9.41L310.98-9.41L310.98-9.41Q310.98-13.82 313.60-16.19L313.60-16.19L313.60-16.19Q316.22-18.56 321.73-19.14L321.73-19.14L330.11-20.03L330.11-20.48L330.11-20.48Q330.11-22.34 328.48-23.14L328.48-23.14L328.48-23.14Q326.85-23.94 323.78-23.94L323.78-23.94L323.78-23.94Q321.34-23.94 319.04-23.42L319.04-23.42L319.04-23.42Q316.74-22.91 314.88-22.14L314.88-22.14L314.88-22.14Q314.05-22.72 313.47-23.90L313.47-23.90L313.47-23.90Q312.90-25.09 312.90-26.37L312.90-26.37L312.90-26.37Q312.90-28.03 313.70-29.02L313.70-29.02L313.70-29.02Q314.50-30.02 316.16-30.72L316.16-30.72L316.16-30.72Q318.02-31.42 320.54-31.74L320.54-31.74L320.54-31.74Q323.07-32.06 325.31-32.06ZM358.40-37.18L358.40-0.06L358.40-0.06Q357.70 0.06 356.32 0.29L356.32 0.29L356.32 0.29Q354.94 0.51 353.54 0.51L353.54 0.51L353.54 0.51Q352.13 0.51 351.01 0.32L351.01 0.32L351.01 0.32Q349.89 0.13 349.12-0.45L349.12-0.45L349.12-0.45Q348.35-1.02 347.94-2.02L347.94-2.02L347.94-2.02Q347.52-3.01 347.52-4.61L347.52-4.61L347.52-41.73L347.52-41.73Q348.22-41.86 349.60-42.08L349.60-42.08L349.60-42.08Q350.98-42.30 352.38-42.30L352.38-42.30L352.38-42.30Q353.79-42.30 354.91-42.11L354.91-42.11L354.91-42.11Q356.03-41.92 356.80-41.34L356.80-41.34L356.80-41.34Q357.57-40.77 357.98-39.78L357.98-39.78L357.98-39.78Q358.40-38.78 358.40-37.18L358.40-37.18ZM368.51-4.93L368.51-4.93L368.51-4.93Q368.51-7.55 370.14-9.25L370.14-9.25L370.14-9.25Q371.78-10.94 374.66-10.94L374.66-10.94L374.66-10.94Q377.54-10.94 379.17-9.25L379.17-9.25L379.17-9.25Q380.80-7.55 380.80-4.93L380.80-4.93L380.80-4.93Q380.80-2.30 379.17-0.61L379.17-0.61L379.17-0.61Q377.54 1.09 374.66 1.09L374.66 1.09L374.66 1.09Q371.78 1.09 370.14-0.61L370.14-0.61L370.14-0.61Q368.51-2.30 368.51-4.93ZM377.09-14.59L370.62-13.31L370.62-13.31Q369.54-13.89 368.58-15.39L368.58-15.39L368.58-15.39Q367.62-16.90 367.62-18.94L367.62-18.94L367.62-18.94Q367.62-20.93 368.67-21.92L368.67-21.92L368.67-21.92Q369.73-22.91 371.78-23.42L371.78-23.42L376.77-24.64L376.77-24.64Q379.97-25.47 379.97-27.71L379.97-27.71L379.97-27.71Q379.97-28.93 378.78-29.82L378.78-29.82L378.78-29.82Q377.60-30.72 374.72-30.72L374.72-30.72L374.72-30.72Q372.10-30.72 369.79-30.05L369.79-30.05L369.79-30.05Q367.49-29.38 366.08-28.48L366.08-28.48L366.08-28.48Q364.99-29.31 364.22-30.50L364.22-30.50L364.22-30.50Q363.46-31.68 363.46-33.34L363.46-33.34L363.46-33.34Q363.46-35.01 364.42-36.26L364.42-36.26L364.42-36.26Q365.38-37.50 367.07-38.30L367.07-38.30L367.07-38.30Q368.77-39.10 371.10-39.49L371.10-39.49L371.10-39.49Q373.44-39.87 376.26-39.87L376.26-39.87L376.26-39.87Q383.81-39.87 387.68-36.51L387.68-36.51L387.68-36.51Q391.55-33.15 391.55-27.71L391.55-27.71L391.55-27.71Q391.55-17.47 377.09-14.59L377.09-14.59Z" fill="#72c140"></path></g></g><style>text {
  font-size: 64px;
  font-family: Arial Black;
  dominant-baseline: central;
  text-anchor: middle;
}</style></svg>